{"title":"John Wick 2014 480p HDCAM x264 Pimp4003","uid":11358555,"size":1070500592,"categoryP":"video","categoryS":"movies","magnet":"?xt=urn:btih:be08db5988c95091e91c17931617841c972d3232&amp;dn=John+Wick+2014+480p+HDCAM+x264+Pimp4003&amp;tr=udp%3A%2F%2Ftracker.openbittorrent.com%3A80&amp;tr=udp%3A%2F%2Fopen.demonii.com%3A1337&amp;tr=udp%3A%2F%2Ftracker.coppersurfer.tk%3A6969&amp;tr=udp%3A%2F%2Fexodus.desync.com%3A6969","seeders":27,"leechers":0,"uploader":"shawnmurthy","files":-1,"time":1414980629,"description":"THERE ARE NO STRINGS.....ON ME.......PIMP4003.......PIMPIN 24/7\n &lt;a href=&quot;\nhttp://i.imgur.com/c1Ejtiu.jpg&quot; rel=&quot;nofollow&quot; target=&quot;_NEW&quot;&gt;\nhttp://i.imgur.com/c1Ejtiu.jpg&lt;/a&gt;\n &lt;a href=&quot;\nhttp://i.imgur.com/fW5GLTr.jpg&quot; rel=&quot;nofollow&quot; target=&quot;_NEW&quot;&gt;\nhttp://i.imgur.com/fW5GLTr.jpg&lt;/a&gt;\n &lt;a href=&quot;\nhttp://i.imgur.com/SaqChcR.jpg&quot; rel=&quot;nofollow&quot; target=&quot;_NEW&quot;&gt;\nhttp://i.imgur.com/SaqChcR.jpg&lt;/a&gt;\n\nJohn Wick 2014 480p HDCAM x264 Pimp4003\n\nENJOY\n\nPIMP4003\n\nVideo\nID                                       : 0\nFormat                                   : MPEG-4 Visual\nFormat profile                           : Simple@L1\nFormat settings, BVOP                    : No\nFormat settings, QPel                    : No\nFormat settings, GMC                     : No warppoints\nFormat settings, Matrix                  : Default (H.263)\nCodec ID                                 : FMP4\nDuration                                 : 1h 34mn\nBit rate                                 : 1 335 Kbps\nWidth                                    : 720 pixels\nHeight                                   : 480 pixels\nDisplay aspect ratio                     : 3:2\nFrame rate                               : 29.970 fps\nStandard                                 : NTSC\nColor space                              : YUV\nChroma subsampling                       : 4:2:0\nBit depth                                : 8 bits\nScan type                                : Progressive\nCompression mode                         : Lossy\nBits/(Pixel*Frame)                       : 0.129\nStream size                              : 903 MiB (88%)\nWriting library                          : Lavc52.97.0\n\nAudio\nID                                       : 1\nFormat                                   : MPEG Audio\nFormat version                           : Version 1\nFormat profile                           : Layer 3\nMode                                     : Joint stereo\nMode extension                           : MS Stereo\nCodec ID                                 : 55\nCodec ID/Hint                            : MP3\nDuration                                 : 1h 34mn\nBit rate mode                            : Constant\nBit rate                                 : 160 Kbps\nChannel(s)                               : 2 channels\nSampling rate                            : 48.0 KHz\nCompression mode                         : Lossy\nStream size                              : 108 MiB (11%)\nAlignment                                : Aligned on interleaves\nInterleave, duration                     : 24 ms (0.72 video frame)\nInterleave, preload duration             : 24 ms","torrent":{"xt":"urn:btih:be08db5988c95091e91c17931617841c972d3232","amp;dn":"John+Wick+2014+480p+HDCAM+x264+Pimp4003","amp;tr":["udp%3A%2F%2Ftracker.openbittorrent.com%3A80","udp%3A%2F%2Fopen.demonii.com%3A1337","udp%3A%2F%2Ftracker.coppersurfer.tk%3A6969","udp%3A%2F%2Fexodus.desync.com%3A6969"],"infoHash":"be08db5988c95091e91c17931617841c972d3232","infoHashBuffer":{"type":"Buffer","data":[190,8,219,89,136,201,80,145,233,28,23,147,22,23,132,28,151,45,50,50]},"announce":[],"urlList":[]}}